<svg width="600" height="193" viewBox="0 0 600 193" fill="none" xmlns="http://www.w3.org/2000/svg">
<rect width="600" height="160" rx="43" fill="#5271FF"/>
<rect width="600" height="108" fill="#5271FF"/>
<path d="M300 193L267.091 154H332.909L300 193Z" fill="#5271FF"/>
<path d="M215.344 48.2V72H210.924V61.8H198.616V72H194.196V48.2H198.616V58.026H210.924V48.2H215.344ZM221.313 53.844H225.563V72H221.313V53.844ZM223.455 50.852C222.685 50.852 222.039 50.614 221.517 50.138C220.996 49.6393 220.735 49.0273 220.735 48.302C220.735 47.5767 220.996 46.976 221.517 46.5C222.039 46.0013 222.685 45.752 223.455 45.752C224.226 45.752 224.872 45.99 225.393 46.466C225.915 46.9193 226.175 47.4973 226.175 48.2C226.175 48.948 225.915 49.5827 225.393 50.104C224.895 50.6027 224.249 50.852 223.455 50.852ZM240.946 48.2H245.366V72H240.946V48.2ZM252.789 46.534C253.583 46.534 254.24 46.7947 254.761 47.316C255.283 47.8373 255.543 48.506 255.543 49.322C255.543 49.73 255.487 50.1267 255.373 50.512C255.283 50.8973 255.09 51.4753 254.795 52.246L253.027 57.074H250.273L251.633 51.838C251.135 51.6567 250.738 51.3507 250.443 50.92C250.171 50.4667 250.035 49.934 250.035 49.322C250.035 48.506 250.296 47.8373 250.817 47.316C251.339 46.7947 251.996 46.534 252.789 46.534ZM282.612 53.64C284.902 53.64 286.715 54.3087 288.052 55.646C289.39 56.9607 290.058 58.944 290.058 61.596V72H285.808V62.14C285.808 60.5533 285.457 59.3633 284.754 58.57C284.052 57.754 283.043 57.346 281.728 57.346C280.3 57.346 279.156 57.822 278.294 58.774C277.433 59.7033 277.002 61.0407 277.002 62.786V72H272.752V62.14C272.752 60.5533 272.401 59.3633 271.698 58.57C270.996 57.754 269.987 57.346 268.672 57.346C267.222 57.346 266.066 57.8107 265.204 58.74C264.366 59.6693 263.946 61.018 263.946 62.786V72H259.696V53.844H263.742V56.156C264.422 55.34 265.272 54.7167 266.292 54.286C267.312 53.8553 268.446 53.64 269.692 53.64C271.052 53.64 272.254 53.9007 273.296 54.422C274.362 54.9207 275.2 55.6687 275.812 56.666C276.56 55.714 277.524 54.9773 278.702 54.456C279.881 53.912 281.184 53.64 282.612 53.64ZM320.73 66.492H308.83L306.484 72H301.928L312.638 48.2H316.99L327.734 72H323.11L320.73 66.492ZM319.268 63.024L314.78 52.62L310.326 63.024H319.268ZM340.654 53.64C342.944 53.64 344.78 54.3087 346.162 55.646C347.545 56.9833 348.236 58.9667 348.236 61.596V72H343.986V62.14C343.986 60.5533 343.612 59.3633 342.864 58.57C342.116 57.754 341.051 57.346 339.668 57.346C338.104 57.346 336.869 57.822 335.962 58.774C335.056 59.7033 334.602 61.052 334.602 62.82V72H330.352V53.844H334.398V56.19C335.101 55.3513 335.985 54.7167 337.05 54.286C338.116 53.8553 339.317 53.64 340.654 53.64ZM371.206 53.844V72H367.16V69.688C366.48 70.504 365.63 71.1387 364.61 71.592C363.59 72.0227 362.491 72.238 361.312 72.238C358.887 72.238 356.971 71.5693 355.566 70.232C354.183 68.872 353.492 66.866 353.492 64.214V53.844H357.742V63.636C357.742 65.268 358.105 66.492 358.83 67.308C359.578 68.1013 360.632 68.498 361.992 68.498C363.511 68.498 364.712 68.0333 365.596 67.104C366.503 66.152 366.956 64.792 366.956 63.024V53.844H371.206ZM383.706 53.64C386.381 53.64 388.421 54.286 389.826 55.578C391.254 56.8473 391.968 58.774 391.968 61.358V72H387.956V69.79C387.435 70.5833 386.687 71.1953 385.712 71.626C384.76 72.034 383.604 72.238 382.244 72.238C380.884 72.238 379.694 72.0113 378.674 71.558C377.654 71.082 376.861 70.436 376.294 69.62C375.75 68.7813 375.478 67.8407 375.478 66.798C375.478 65.166 376.079 63.8627 377.28 62.888C378.504 61.8907 380.42 61.392 383.026 61.392H387.718V61.12C387.718 59.8507 387.333 58.876 386.562 58.196C385.814 57.516 384.692 57.176 383.196 57.176C382.176 57.176 381.168 57.3347 380.17 57.652C379.196 57.9693 378.368 58.4113 377.688 58.978L376.022 55.884C376.974 55.1587 378.119 54.6033 379.456 54.218C380.794 53.8327 382.21 53.64 383.706 53.64ZM383.128 69.144C384.194 69.144 385.134 68.906 385.95 68.43C386.789 67.9313 387.378 67.2287 387.718 66.322V64.214H383.332C380.884 64.214 379.66 65.0187 379.66 66.628C379.66 67.3987 379.966 68.0107 380.578 68.464C381.19 68.9173 382.04 69.144 383.128 69.144ZM401.469 56.496C402.693 54.592 404.846 53.64 407.929 53.64V57.686C407.566 57.618 407.237 57.584 406.943 57.584C405.288 57.584 403.996 58.0713 403.067 59.046C402.137 59.998 401.673 61.3807 401.673 63.194V72H397.423V53.844H401.469V56.496Z" fill="white"/>
<path d="M111.824 90.604H114.146V93.16H111.914V100H108.494V93.16H107.072V90.604H108.494V90.352C108.494 89.164 108.848 88.222 109.556 87.526C110.276 86.83 111.278 86.482 112.562 86.482C112.994 86.482 113.414 86.524 113.822 86.608C114.23 86.692 114.566 86.818 114.83 86.986L113.984 89.398C113.648 89.206 113.306 89.11 112.958 89.11C112.598 89.11 112.316 89.218 112.112 89.434C111.92 89.65 111.824 89.968 111.824 90.388V90.604ZM120.11 91.414C120.458 90.97 120.908 90.64 121.46 90.424C122.024 90.196 122.666 90.082 123.386 90.082V93.16C123.074 93.124 122.816 93.106 122.612 93.106C121.88 93.106 121.304 93.304 120.884 93.7C120.476 94.096 120.272 94.702 120.272 95.518V100H116.852V90.244H120.11V91.414ZM129.605 100.162C128.561 100.162 127.619 99.946 126.779 99.514C125.939 99.082 125.279 98.482 124.799 97.714C124.331 96.946 124.097 96.076 124.097 95.104C124.097 94.144 124.331 93.28 124.799 92.512C125.279 91.744 125.933 91.15 126.761 90.73C127.601 90.298 128.549 90.082 129.605 90.082C130.661 90.082 131.609 90.298 132.449 90.73C133.289 91.15 133.943 91.744 134.411 92.512C134.879 93.268 135.113 94.132 135.113 95.104C135.113 96.076 134.879 96.946 134.411 97.714C133.943 98.482 133.289 99.082 132.449 99.514C131.609 99.946 130.661 100.162 129.605 100.162ZM129.605 97.444C130.205 97.444 130.697 97.24 131.081 96.832C131.465 96.412 131.657 95.836 131.657 95.104C131.657 94.384 131.465 93.82 131.081 93.412C130.697 93.004 130.205 92.8 129.605 92.8C129.005 92.8 128.513 93.004 128.129 93.412C127.745 93.82 127.553 94.384 127.553 95.104C127.553 95.836 127.745 96.412 128.129 96.832C128.513 97.24 129.005 97.444 129.605 97.444ZM143.052 90.082C144.264 90.082 145.236 90.442 145.968 91.162C146.712 91.882 147.084 92.968 147.084 94.42V100H143.664V94.978C143.664 93.646 143.13 92.98 142.062 92.98C141.474 92.98 141 93.172 140.64 93.556C140.292 93.94 140.118 94.516 140.118 95.284V100H136.698V90.244H139.956V91.306C140.34 90.91 140.796 90.61 141.324 90.406C141.852 90.19 142.428 90.082 143.052 90.082ZM155.963 99.604C155.675 99.784 155.321 99.922 154.901 100.018C154.493 100.114 154.055 100.162 153.587 100.162C152.315 100.162 151.337 99.85 150.653 99.226C149.969 98.602 149.627 97.672 149.627 96.436V93.16H148.205V90.604H149.627V88.066H153.047V90.604H155.279V93.16H153.047V96.4C153.047 96.748 153.137 97.024 153.317 97.228C153.509 97.42 153.761 97.516 154.073 97.516C154.469 97.516 154.817 97.414 155.117 97.21L155.963 99.604ZM172.492 95.14C172.492 95.164 172.474 95.446 172.438 95.986H165.346C165.49 96.49 165.766 96.88 166.174 97.156C166.594 97.42 167.116 97.552 167.74 97.552C168.208 97.552 168.61 97.486 168.946 97.354C169.294 97.222 169.642 97.006 169.99 96.706L171.79 98.578C170.842 99.634 169.456 100.162 167.632 100.162C166.492 100.162 165.49 99.946 164.626 99.514C163.762 99.082 163.09 98.482 162.61 97.714C162.142 96.946 161.908 96.076 161.908 95.104C161.908 94.144 162.136 93.286 162.592 92.53C163.06 91.762 163.702 91.162 164.518 90.73C165.334 90.298 166.252 90.082 167.272 90.082C168.244 90.082 169.126 90.286 169.918 90.694C170.71 91.09 171.334 91.672 171.79 92.44C172.258 93.196 172.492 94.096 172.492 95.14ZM167.29 92.512C166.762 92.512 166.318 92.662 165.958 92.962C165.61 93.262 165.388 93.67 165.292 94.186H169.288C169.192 93.67 168.964 93.262 168.604 92.962C168.256 92.662 167.818 92.512 167.29 92.512ZM180.423 90.082C181.635 90.082 182.607 90.442 183.339 91.162C184.083 91.882 184.455 92.968 184.455 94.42V100H181.035V94.978C181.035 93.646 180.501 92.98 179.433 92.98C178.845 92.98 178.371 93.172 178.011 93.556C177.663 93.94 177.489 94.516 177.489 95.284V100H174.069V90.244H177.327V91.306C177.711 90.91 178.167 90.61 178.695 90.406C179.223 90.19 179.799 90.082 180.423 90.082ZM197.111 86.644V100H193.853V99.028C193.217 99.784 192.263 100.162 190.991 100.162C190.103 100.162 189.293 99.958 188.561 99.55C187.829 99.13 187.247 98.536 186.815 97.768C186.395 97 186.185 96.112 186.185 95.104C186.185 94.096 186.395 93.214 186.815 92.458C187.247 91.69 187.829 91.102 188.561 90.694C189.293 90.286 190.103 90.082 190.991 90.082C192.155 90.082 193.055 90.418 193.691 91.09V86.644H197.111ZM191.711 97.444C192.299 97.444 192.785 97.24 193.169 96.832C193.553 96.412 193.745 95.836 193.745 95.104C193.745 94.384 193.553 93.82 193.169 93.412C192.797 93.004 192.311 92.8 191.711 92.8C191.111 92.8 190.619 93.004 190.235 93.412C189.851 93.82 189.659 94.384 189.659 95.104C189.659 95.836 189.851 96.412 190.235 96.832C190.619 97.24 191.111 97.444 191.711 97.444ZM214.917 86.644V100H211.659V99.028C211.023 99.784 210.069 100.162 208.797 100.162C207.909 100.162 207.099 99.958 206.367 99.55C205.635 99.13 205.053 98.536 204.621 97.768C204.201 97 203.991 96.112 203.991 95.104C203.991 94.096 204.201 93.214 204.621 92.458C205.053 91.69 205.635 91.102 206.367 90.694C207.099 90.286 207.909 90.082 208.797 90.082C209.961 90.082 210.861 90.418 211.497 91.09V86.644H214.917ZM209.517 97.444C210.105 97.444 210.591 97.24 210.975 96.832C211.359 96.412 211.551 95.836 211.551 95.104C211.551 94.384 211.359 93.82 210.975 93.412C210.603 93.004 210.117 92.8 209.517 92.8C208.917 92.8 208.425 93.004 208.041 93.412C207.657 93.82 207.465 94.384 207.465 95.104C207.465 95.836 207.657 96.412 208.041 96.832C208.425 97.24 208.917 97.444 209.517 97.444ZM227.09 95.14C227.09 95.164 227.072 95.446 227.036 95.986H219.944C220.088 96.49 220.364 96.88 220.772 97.156C221.192 97.42 221.714 97.552 222.338 97.552C222.806 97.552 223.208 97.486 223.544 97.354C223.892 97.222 224.24 97.006 224.588 96.706L226.388 98.578C225.44 99.634 224.054 100.162 222.23 100.162C221.09 100.162 220.088 99.946 219.224 99.514C218.36 99.082 217.688 98.482 217.208 97.714C216.74 96.946 216.506 96.076 216.506 95.104C216.506 94.144 216.734 93.286 217.19 92.53C217.658 91.762 218.3 91.162 219.116 90.73C219.932 90.298 220.85 90.082 221.87 90.082C222.842 90.082 223.724 90.286 224.516 90.694C225.308 91.09 225.932 91.672 226.388 92.44C226.856 93.196 227.09 94.096 227.09 95.14ZM221.888 92.512C221.36 92.512 220.916 92.662 220.556 92.962C220.208 93.262 219.986 93.67 219.89 94.186H223.886C223.79 93.67 223.562 93.262 223.202 92.962C222.854 92.662 222.416 92.512 221.888 92.512ZM238.769 90.244L234.737 100H231.209L227.195 90.244H230.705L233.045 96.202L235.511 90.244H238.769ZM249.361 95.14C249.361 95.164 249.343 95.446 249.307 95.986H242.215C242.359 96.49 242.635 96.88 243.043 97.156C243.463 97.42 243.985 97.552 244.609 97.552C245.077 97.552 245.479 97.486 245.815 97.354C246.163 97.222 246.511 97.006 246.859 96.706L248.659 98.578C247.711 99.634 246.325 100.162 244.501 100.162C243.361 100.162 242.359 99.946 241.495 99.514C240.631 99.082 239.959 98.482 239.479 97.714C239.011 96.946 238.777 96.076 238.777 95.104C238.777 94.144 239.005 93.286 239.461 92.53C239.929 91.762 240.571 91.162 241.387 90.73C242.203 90.298 243.121 90.082 244.141 90.082C245.113 90.082 245.995 90.286 246.787 90.694C247.579 91.09 248.203 91.672 248.659 92.44C249.127 93.196 249.361 94.096 249.361 95.14ZM244.159 92.512C243.631 92.512 243.187 92.662 242.827 92.962C242.479 93.262 242.257 93.67 242.161 94.186H246.157C246.061 93.67 245.833 93.262 245.473 92.962C245.125 92.662 244.687 92.512 244.159 92.512ZM250.938 86.644H254.358V100H250.938V86.644ZM261.476 100.162C260.432 100.162 259.49 99.946 258.65 99.514C257.81 99.082 257.15 98.482 256.67 97.714C256.202 96.946 255.968 96.076 255.968 95.104C255.968 94.144 256.202 93.28 256.67 92.512C257.15 91.744 257.804 91.15 258.632 90.73C259.472 90.298 260.42 90.082 261.476 90.082C262.532 90.082 263.48 90.298 264.32 90.73C265.16 91.15 265.814 91.744 266.282 92.512C266.75 93.268 266.984 94.132 266.984 95.104C266.984 96.076 266.75 96.946 266.282 97.714C265.814 98.482 265.16 99.082 264.32 99.514C263.48 99.946 262.532 100.162 261.476 100.162ZM261.476 97.444C262.076 97.444 262.568 97.24 262.952 96.832C263.336 96.412 263.528 95.836 263.528 95.104C263.528 94.384 263.336 93.82 262.952 93.412C262.568 93.004 262.076 92.8 261.476 92.8C260.876 92.8 260.384 93.004 260 93.412C259.616 93.82 259.424 94.384 259.424 95.104C259.424 95.836 259.616 96.412 260 96.832C260.384 97.24 260.876 97.444 261.476 97.444ZM274.707 90.082C275.595 90.082 276.399 90.292 277.119 90.712C277.851 91.12 278.427 91.708 278.847 92.476C279.279 93.232 279.495 94.114 279.495 95.122C279.495 96.13 279.279 97.018 278.847 97.786C278.427 98.542 277.851 99.13 277.119 99.55C276.399 99.958 275.595 100.162 274.707 100.162C273.567 100.162 272.661 99.82 271.989 99.136V103.492H268.569V90.244H271.827V91.216C272.463 90.46 273.423 90.082 274.707 90.082ZM273.987 97.444C274.587 97.444 275.079 97.24 275.463 96.832C275.847 96.412 276.039 95.842 276.039 95.122C276.039 94.402 275.847 93.838 275.463 93.43C275.079 93.01 274.587 92.8 273.987 92.8C273.387 92.8 272.895 93.01 272.511 93.43C272.127 93.838 271.935 94.402 271.935 95.122C271.935 95.842 272.127 96.412 272.511 96.832C272.895 97.24 273.387 97.444 273.987 97.444ZM291.056 95.14C291.056 95.164 291.038 95.446 291.002 95.986H283.91C284.054 96.49 284.33 96.88 284.738 97.156C285.158 97.42 285.68 97.552 286.304 97.552C286.772 97.552 287.174 97.486 287.51 97.354C287.858 97.222 288.206 97.006 288.554 96.706L290.354 98.578C289.406 99.634 288.02 100.162 286.196 100.162C285.056 100.162 284.054 99.946 283.19 99.514C282.326 99.082 281.654 98.482 281.174 97.714C280.706 96.946 280.472 96.076 280.472 95.104C280.472 94.144 280.7 93.286 281.156 92.53C281.624 91.762 282.266 91.162 283.082 90.73C283.898 90.298 284.816 90.082 285.836 90.082C286.808 90.082 287.69 90.286 288.482 90.694C289.274 91.09 289.898 91.672 290.354 92.44C290.822 93.196 291.056 94.096 291.056 95.14ZM285.854 92.512C285.326 92.512 284.882 92.662 284.522 92.962C284.174 93.262 283.952 93.67 283.856 94.186H287.852C287.756 93.67 287.528 93.262 287.168 92.962C286.82 92.662 286.382 92.512 285.854 92.512ZM295.891 91.414C296.239 90.97 296.689 90.64 297.241 90.424C297.805 90.196 298.447 90.082 299.167 90.082V93.16C298.855 93.124 298.597 93.106 298.393 93.106C297.661 93.106 297.085 93.304 296.665 93.7C296.257 94.096 296.053 94.702 296.053 95.518V100H292.633V90.244H295.891V91.414ZM310.01 90.082C311.63 90.082 312.866 90.454 313.718 91.198C314.57 91.93 314.996 93.058 314.996 94.582V100H311.81V98.74C311.318 99.688 310.358 100.162 308.93 100.162C308.174 100.162 307.52 100.03 306.968 99.766C306.416 99.502 305.996 99.148 305.708 98.704C305.432 98.248 305.294 97.732 305.294 97.156C305.294 96.232 305.648 95.518 306.356 95.014C307.064 94.498 308.156 94.24 309.632 94.24H311.576C311.516 93.208 310.826 92.692 309.506 92.692C309.038 92.692 308.564 92.77 308.084 92.926C307.604 93.07 307.196 93.274 306.86 93.538L305.708 91.216C306.248 90.856 306.902 90.58 307.67 90.388C308.45 90.184 309.23 90.082 310.01 90.082ZM309.884 98.002C310.28 98.002 310.628 97.906 310.928 97.714C311.228 97.522 311.444 97.24 311.576 96.868V96.022H310.1C309.104 96.022 308.606 96.352 308.606 97.012C308.606 97.312 308.72 97.552 308.948 97.732C309.176 97.912 309.488 98.002 309.884 98.002ZM323.509 90.082C324.721 90.082 325.693 90.442 326.425 91.162C327.169 91.882 327.541 92.968 327.541 94.42V100H324.121V94.978C324.121 93.646 323.587 92.98 322.519 92.98C321.931 92.98 321.457 93.172 321.097 93.556C320.749 93.94 320.575 94.516 320.575 95.284V100H317.155V90.244H320.413V91.306C320.797 90.91 321.253 90.61 321.781 90.406C322.309 90.19 322.885 90.082 323.509 90.082ZM340.196 86.644V100H336.938V99.028C336.302 99.784 335.348 100.162 334.076 100.162C333.188 100.162 332.378 99.958 331.646 99.55C330.914 99.13 330.332 98.536 329.9 97.768C329.48 97 329.27 96.112 329.27 95.104C329.27 94.096 329.48 93.214 329.9 92.458C330.332 91.69 330.914 91.102 331.646 90.694C332.378 90.286 333.188 90.082 334.076 90.082C335.24 90.082 336.14 90.418 336.776 91.09V86.644H340.196ZM334.796 97.444C335.384 97.444 335.87 97.24 336.254 96.832C336.638 96.412 336.83 95.836 336.83 95.104C336.83 94.384 336.638 93.82 336.254 93.412C335.882 93.004 335.396 92.8 334.796 92.8C334.196 92.8 333.704 93.004 333.32 93.412C332.936 93.82 332.744 94.384 332.744 95.104C332.744 95.836 332.936 96.412 333.32 96.832C333.704 97.24 334.196 97.444 334.796 97.444ZM353.611 100.252C351.739 100.252 350.281 99.742 349.237 98.722C348.205 97.702 347.689 96.256 347.689 94.384V87.4H351.253V94.276C351.253 96.292 352.051 97.3 353.647 97.3C355.231 97.3 356.023 96.292 356.023 94.276V87.4H359.533V94.384C359.533 96.256 359.011 97.702 357.967 98.722C356.935 99.742 355.483 100.252 353.611 100.252ZM361.948 87.4H365.512V100H361.948V87.4ZM372.061 84.844H375.103L369.163 101.8H366.121L372.061 84.844ZM381.332 100.252C379.46 100.252 378.002 99.742 376.958 98.722C375.926 97.702 375.41 96.256 375.41 94.384V87.4H378.974V94.276C378.974 96.292 379.772 97.3 381.368 97.3C382.952 97.3 383.744 96.292 383.744 94.276V87.4H387.254V94.384C387.254 96.256 386.732 97.702 385.688 98.722C384.656 99.742 383.204 100.252 381.332 100.252ZM397.448 100L394.838 96.094L392.264 100H388.196L392.786 93.628L388.394 87.4H392.408L394.928 91.036L397.412 87.4H401.264L396.872 93.484L401.552 100H397.448ZM418.208 86.644V100H414.95V99.028C414.314 99.784 413.36 100.162 412.088 100.162C411.2 100.162 410.39 99.958 409.658 99.55C408.926 99.13 408.344 98.536 407.912 97.768C407.492 97 407.282 96.112 407.282 95.104C407.282 94.096 407.492 93.214 407.912 92.458C408.344 91.69 408.926 91.102 409.658 90.694C410.39 90.286 411.2 90.082 412.088 90.082C413.252 90.082 414.152 90.418 414.788 91.09V86.644H418.208ZM412.808 97.444C413.396 97.444 413.882 97.24 414.266 96.832C414.65 96.412 414.842 95.836 414.842 95.104C414.842 94.384 414.65 93.82 414.266 93.412C413.894 93.004 413.408 92.8 412.808 92.8C412.208 92.8 411.716 93.004 411.332 93.412C410.948 93.82 410.756 94.384 410.756 95.104C410.756 95.836 410.948 96.412 411.332 96.832C411.716 97.24 412.208 97.444 412.808 97.444ZM430.381 95.14C430.381 95.164 430.363 95.446 430.327 95.986H423.235C423.379 96.49 423.655 96.88 424.063 97.156C424.483 97.42 425.005 97.552 425.629 97.552C426.097 97.552 426.499 97.486 426.835 97.354C427.183 97.222 427.531 97.006 427.879 96.706L429.679 98.578C428.731 99.634 427.345 100.162 425.521 100.162C424.381 100.162 423.379 99.946 422.515 99.514C421.651 99.082 420.979 98.482 420.499 97.714C420.031 96.946 419.797 96.076 419.797 95.104C419.797 94.144 420.025 93.286 420.481 92.53C420.949 91.762 421.591 91.162 422.407 90.73C423.223 90.298 424.141 90.082 425.161 90.082C426.133 90.082 427.015 90.286 427.807 90.694C428.599 91.09 429.223 91.672 429.679 92.44C430.147 93.196 430.381 94.096 430.381 95.14ZM425.179 92.512C424.651 92.512 424.207 92.662 423.847 92.962C423.499 93.262 423.277 93.67 423.181 94.186H427.177C427.081 93.67 426.853 93.262 426.493 92.962C426.145 92.662 425.707 92.512 425.179 92.512ZM435.503 100.162C434.687 100.162 433.883 100.072 433.091 99.892C432.299 99.7 431.663 99.454 431.183 99.154L432.209 96.814C432.653 97.09 433.181 97.312 433.793 97.48C434.405 97.636 435.011 97.714 435.611 97.714C436.163 97.714 436.553 97.66 436.781 97.552C437.021 97.432 437.141 97.264 437.141 97.048C437.141 96.832 436.997 96.682 436.709 96.598C436.433 96.502 435.989 96.412 435.377 96.328C434.597 96.232 433.931 96.106 433.379 95.95C432.839 95.794 432.371 95.506 431.975 95.086C431.579 94.666 431.381 94.078 431.381 93.322C431.381 92.698 431.567 92.146 431.939 91.666C432.311 91.174 432.851 90.79 433.559 90.514C434.279 90.226 435.137 90.082 436.133 90.082C436.841 90.082 437.543 90.154 438.239 90.298C438.935 90.442 439.517 90.646 439.985 90.91L438.959 93.232C438.095 92.752 437.159 92.512 436.151 92.512C435.611 92.512 435.215 92.578 434.963 92.71C434.711 92.83 434.585 92.992 434.585 93.196C434.585 93.424 434.723 93.586 434.999 93.682C435.275 93.766 435.731 93.856 436.367 93.952C437.171 94.072 437.837 94.21 438.365 94.366C438.893 94.522 439.349 94.81 439.733 95.23C440.129 95.638 440.327 96.214 440.327 96.958C440.327 97.57 440.141 98.122 439.769 98.614C439.397 99.094 438.845 99.472 438.113 99.748C437.393 100.024 436.523 100.162 435.503 100.162ZM441.801 90.244H445.221V100H441.801V90.244ZM443.511 89.164C442.887 89.164 442.383 88.99 441.999 88.642C441.615 88.294 441.423 87.862 441.423 87.346C441.423 86.83 441.615 86.398 441.999 86.05C442.383 85.702 442.887 85.528 443.511 85.528C444.135 85.528 444.639 85.696 445.023 86.032C445.407 86.356 445.599 86.776 445.599 87.292C445.599 87.832 445.407 88.282 445.023 88.642C444.639 88.99 444.135 89.164 443.511 89.164ZM457.938 90.244V98.218C457.938 100.03 457.446 101.386 456.462 102.286C455.478 103.198 454.062 103.654 452.214 103.654C451.254 103.654 450.354 103.546 449.514 103.33C448.674 103.114 447.96 102.796 447.372 102.376L448.614 99.982C449.01 100.306 449.508 100.558 450.108 100.738C450.72 100.93 451.32 101.026 451.908 101.026C452.808 101.026 453.468 100.828 453.888 100.432C454.308 100.036 454.518 99.448 454.518 98.668V98.344C453.858 99.112 452.892 99.496 451.62 99.496C450.756 99.496 449.958 99.304 449.226 98.92C448.494 98.524 447.912 97.972 447.48 97.264C447.048 96.544 446.832 95.716 446.832 94.78C446.832 93.856 447.048 93.04 447.48 92.332C447.912 91.612 448.494 91.06 449.226 90.676C449.958 90.28 450.756 90.082 451.62 90.082C453.012 90.082 454.032 90.532 454.68 91.432V90.244H457.938ZM452.43 96.778C453.042 96.778 453.546 96.592 453.942 96.22C454.35 95.848 454.554 95.368 454.554 94.78C454.554 94.192 454.356 93.718 453.96 93.358C453.564 92.986 453.054 92.8 452.43 92.8C451.806 92.8 451.29 92.986 450.882 93.358C450.486 93.718 450.288 94.192 450.288 94.78C450.288 95.368 450.492 95.848 450.9 96.22C451.308 96.592 451.818 96.778 452.43 96.778ZM466.489 90.082C467.701 90.082 468.673 90.442 469.405 91.162C470.149 91.882 470.521 92.968 470.521 94.42V100H467.101V94.978C467.101 93.646 466.567 92.98 465.499 92.98C464.911 92.98 464.437 93.172 464.077 93.556C463.729 93.94 463.555 94.516 463.555 95.284V100H460.135V90.244H463.393V91.306C463.777 90.91 464.233 90.61 464.761 90.406C465.289 90.19 465.865 90.082 466.489 90.082ZM482.781 95.14C482.781 95.164 482.763 95.446 482.727 95.986H475.635C475.779 96.49 476.055 96.88 476.463 97.156C476.883 97.42 477.405 97.552 478.029 97.552C478.497 97.552 478.899 97.486 479.235 97.354C479.583 97.222 479.931 97.006 480.279 96.706L482.079 98.578C481.131 99.634 479.745 100.162 477.921 100.162C476.781 100.162 475.779 99.946 474.915 99.514C474.051 99.082 473.379 98.482 472.899 97.714C472.431 96.946 472.197 96.076 472.197 95.104C472.197 94.144 472.425 93.286 472.881 92.53C473.349 91.762 473.991 91.162 474.807 90.73C475.623 90.298 476.541 90.082 477.561 90.082C478.533 90.082 479.415 90.286 480.207 90.694C480.999 91.09 481.623 91.672 482.079 92.44C482.547 93.196 482.781 94.096 482.781 95.14ZM477.579 92.512C477.051 92.512 476.607 92.662 476.247 92.962C475.899 93.262 475.677 93.67 475.581 94.186H479.577C479.481 93.67 479.253 93.262 478.893 92.962C478.545 92.662 478.107 92.512 477.579 92.512ZM487.616 91.414C487.964 90.97 488.414 90.64 488.966 90.424C489.53 90.196 490.172 90.082 490.892 90.082V93.16C490.58 93.124 490.322 93.106 490.118 93.106C489.386 93.106 488.81 93.304 488.39 93.7C487.982 94.096 487.778 94.702 487.778 95.518V100H484.358V90.244H487.616V91.414Z" fill="white"/>
</svg>
